<?xml version="1.0" encoding="UTF-8"?>
<!DOCTYPE svg PUBLIC "-//W3C//DTD SVG 1.1//EN" "http://www.w3.org/Graphics/SVG/1.1/DTD/svg11.dtd">
<svg xmlns="http://www.w3.org/2000/svg" version="1.1" width="414px" height="368px" style="shape-rendering:geometricPrecision; text-rendering:geometricPrecision; image-rendering:optimizeQuality; fill-rule:evenodd; clip-rule:evenodd" xmlns:xlink="http://www.w3.org/1999/xlink">
<g><path style="opacity:1" fill="#26af4e" d="M 309.5,25.5 C 309.167,25.5 308.833,25.5 308.5,25.5C 306.199,26.0604 303.866,26.5604 301.5,27C 300.663,28.0113 300.33,29.1779 300.5,30.5C 297.891,30.8301 296.224,32.3301 295.5,35C 292.716,35.8917 290.05,37.0584 287.5,38.5C 283.668,41.8403 280.335,45.507 277.5,49.5C 270.729,54.2188 263.396,57.8855 255.5,60.5C 246.161,60.6665 236.827,60.4998 227.5,60C 223.5,59.3333 223.5,58.6667 227.5,58C 223.712,57.0865 220.045,56.9199 216.5,57.5C 214.312,57.6927 212.645,56.8594 211.5,55C 207.514,54.5012 203.514,54.3345 199.5,54.5C 199.5,54.1667 199.5,53.8333 199.5,53.5C 199.5,53.1667 199.5,52.8333 199.5,52.5C 203.042,52.3802 206.542,52.7135 210,53.5C 213.21,52.6615 216.043,51.1615 218.5,49C 224.251,49.1906 229.417,47.6906 234,44.5C 237.144,45.5146 240.311,45.5146 243.5,44.5C 243.281,45.675 243.614,46.675 244.5,47.5C 246.193,44.8103 248.527,42.8103 251.5,41.5C 252.167,41.8333 252.833,42.1667 253.5,42.5C 257.735,41.0187 261.902,39.352 266,37.5C 267.573,37.8446 268.74,38.5113 269.5,39.5C 272.477,37.8717 275.477,36.2051 278.5,34.5C 280.045,33.5481 281.712,33.2148 283.5,33.5C 286.652,28.4277 285.985,23.9277 281.5,20C 284.118,18.0262 283.952,16.1929 281,14.5C 278.851,17.1919 279.017,19.6919 281.5,22C 279.438,22.5639 277.605,22.0639 276,20.5C 274.235,21.2321 273.068,22.5654 272.5,24.5C 266.848,23.267 261.181,23.267 255.5,24.5C 255.217,27.1652 254.883,29.4986 254.5,31.5C 247.779,32.3513 241.112,33.518 234.5,35C 228.553,39.7035 222.72,39.5368 217,34.5C 215.372,35.8187 215.539,37.1521 217.5,38.5C 214.924,39.4295 212.424,40.4295 210,41.5C 206.88,41.1192 204.047,42.2859 201.5,45C 200.552,45.4828 199.552,45.6495 198.5,45.5C 204.952,39.4414 211.952,34.1081 219.5,29.5C 230.232,23.6267 240.898,17.4601 251.5,11C 264.95,8.70242 278.284,9.36909 291.5,13C 292.5,14 293.5,15 294.5,16C 297.833,16.3333 301.167,16.6667 304.5,17C 304.043,17.414 303.709,17.914 303.5,18.5C 305.423,19.3078 307.423,19.8078 309.5,20C 308.833,20.3333 308.167,20.6667 307.5,21C 309.107,22.049 309.773,23.549 309.5,25.5 Z"/></g>
<g><path style="opacity:1" fill="#57b371" d="M 309.5,25.5 C 309.773,23.549 309.107,22.049 307.5,21C 308.167,20.6667 308.833,20.3333 309.5,20C 307.423,19.8078 305.423,19.3078 303.5,18.5C 303.709,17.914 304.043,17.414 304.5,17C 301.167,16.6667 297.833,16.3333 294.5,16C 293.5,15 292.5,14 291.5,13C 278.284,9.36909 264.95,8.70242 251.5,11C 240.898,17.4601 230.232,23.6267 219.5,29.5C 228.516,21.6822 238.516,15.1822 249.5,10C 262.54,6.76245 275.54,7.09579 288.5,11C 295.558,12.7973 302.558,14.7973 309.5,17C 314.752,19.7678 314.752,22.6011 309.5,25.5 Z"/></g>
<g><path style="opacity:0.975" fill="#54b170" d="M 308.5,25.5 C 298.762,34.2339 288.429,42.2339 277.5,49.5C 280.335,45.507 283.668,41.8403 287.5,38.5C 290.05,37.0584 292.716,35.8917 295.5,35C 296.224,32.3301 297.891,30.8301 300.5,30.5C 300.33,29.1779 300.663,28.0113 301.5,27C 303.866,26.5604 306.199,26.0604 308.5,25.5 Z"/></g>
<g><path style="opacity:1" fill="#2fae3e" d="M 199.5,52.5 C 197.654,52.7778 196.32,52.1112 195.5,50.5C 196.63,49.3777 197.297,48.0443 197.5,46.5C 197.5,45.8333 197.833,45.5 198.5,45.5C 199.552,45.6495 200.552,45.4828 201.5,45C 204.047,42.2859 206.88,41.1192 210,41.5C 212.424,40.4295 214.924,39.4295 217.5,38.5C 215.539,37.1521 215.372,35.8187 217,34.5C 222.72,39.5368 228.553,39.7035 234.5,35C 241.112,33.518 247.779,32.3513 254.5,31.5C 254.883,29.4986 255.217,27.1652 255.5,24.5C 261.181,23.267 266.848,23.267 272.5,24.5C 273.068,22.5654 274.235,21.2321 276,20.5C 277.605,22.0639 279.438,22.5639 281.5,22C 279.017,19.6919 278.851,17.1919 281,14.5C 283.952,16.1929 284.118,18.0262 281.5,20C 285.985,23.9277 286.652,28.4277 283.5,33.5C 281.712,33.2148 280.045,33.5481 278.5,34.5C 275.477,36.2051 272.477,37.8717 269.5,39.5C 268.74,38.5113 267.573,37.8446 266,37.5C 261.902,39.352 257.735,41.0187 253.5,42.5C 252.833,42.1667 252.167,41.8333 251.5,41.5C 248.527,42.8103 246.193,44.8103 244.5,47.5C 243.614,46.675 243.281,45.675 243.5,44.5C 240.311,45.5146 237.144,45.5146 234,44.5C 229.417,47.6906 224.251,49.1906 218.5,49C 216.043,51.1615 213.21,52.6615 210,53.5C 206.542,52.7135 203.042,52.3802 199.5,52.5 Z"/></g>
<g><path style="opacity:1" fill="#a2e83a" d="M 254.5,31.5 C 263.394,29.4814 272.227,27.1481 281,24.5C 283.188,25.0593 283.854,26.3927 283,28.5C 280.929,29.5248 278.762,30.3581 276.5,31C 251.403,37.4205 226.403,44.2539 201.5,51.5C 198.604,50.9763 197.937,49.4763 199.5,47C 209.624,43.5522 219.958,40.8855 230.5,39C 238.712,36.7873 246.712,34.2873 254.5,31.5 Z"/></g>
<g><path style="opacity:0.18" fill="#6ba46c" d="M 197.5,46.5 C 197.297,48.0443 196.63,49.3777 195.5,50.5C 196.32,52.1112 197.654,52.7778 199.5,52.5C 199.5,52.8333 199.5,53.1667 199.5,53.5C 198.209,53.2627 197.209,53.596 196.5,54.5C 192.475,51.5111 192.809,48.8444 197.5,46.5 Z"/></g>
<g><path style="opacity:0.741" fill="#3fa55c" d="M 199.5,54.5 C 203.514,54.3345 207.514,54.5012 211.5,55C 212.645,56.8594 214.312,57.6927 216.5,57.5C 220.045,56.9199 223.712,57.0865 227.5,58C 223.5,58.6667 223.5,59.3333 227.5,60C 236.827,60.4998 246.161,60.6665 255.5,60.5C 254.048,61.3019 252.382,61.8019 250.5,62C 235.094,63.432 220.094,61.5987 205.5,56.5C 203.5,55.8333 201.5,55.1667 199.5,54.5 Z"/></g>
<g><path style="opacity:1" fill="#b88f77" d="M 199.5,53.5 C 199.5,53.8333 199.5,54.1667 199.5,54.5C 201.5,55.1667 203.5,55.8333 205.5,56.5C 204.448,56.3505 203.448,56.5172 202.5,57C 205.66,68.4837 208.827,79.9837 212,91.5C 213.011,92.3366 214.178,92.67 215.5,92.5C 213.739,93.3127 212.072,94.3127 210.5,95.5C 207.759,95.2927 205.426,94.2927 203.5,92.5C 204.497,92.5299 205.164,92.0299 205.5,91C 201.947,78.9546 198.947,66.7879 196.5,54.5C 197.209,53.596 198.209,53.2627 199.5,53.5 Z"/></g>
<g><path style="opacity:0.369" fill="#bf747a" d="M 172.5,83.5 C 176.078,83.5488 179.411,84.2154 182.5,85.5C 180.167,85.5 177.833,85.5 175.5,85.5C 174.5,84.8333 173.5,84.1667 172.5,83.5 Z"/></g>
<g><path style="opacity:0.196" fill="#a8515a" d="M 140.5,83.5 C 140.082,84.2216 139.416,84.7216 138.5,85C 133.46,85.6778 128.46,86.5111 123.5,87.5C 128.817,85.166 134.484,83.8327 140.5,83.5 Z"/></g>
<g><path style="opacity:0.986" fill="#b14547" d="M 172.5,83.5 C 173.5,84.1667 174.5,84.8333 175.5,85.5C 152.564,83.7588 130.231,86.4255 108.5,93.5C 113.105,90.7042 118.105,88.7042 123.5,87.5C 128.46,86.5111 133.46,85.6778 138.5,85C 139.416,84.7216 140.082,84.2216 140.5,83.5C 151.073,80.9107 161.739,80.9107 172.5,83.5 Z"/></g>
<g><path style="opacity:1" fill="#ba001d" d="M 175.5,85.5 C 184.294,88.1984 193.294,90.5317 202.5,92.5C 202.833,92.5 203.167,92.5 203.5,92.5C 205.426,94.2927 207.759,95.2927 210.5,95.5C 224.321,91.9479 238.321,89.1146 252.5,87C 259.492,86.5004 266.492,86.3337 273.5,86.5C 286.369,87.9685 298.702,91.4685 310.5,97C 312.134,97.4935 313.801,97.6602 315.5,97.5C 315.5,98.5 315.5,99.5 315.5,100.5C 318.318,101.156 319.985,102.989 320.5,106C 320.167,106.333 319.833,106.667 319.5,107C 320.428,107.388 321.095,108.055 321.5,109C 321.627,111.719 321.127,114.553 320,117.5C 317.404,115.98 314.571,115.147 311.5,115C 317.51,112.846 317.01,111.013 310,109.5C 305.685,109.4 305.519,110.4 309.5,112.5C 308.167,113.833 306.833,115.167 305.5,116.5C 306.602,117.176 307.602,117.842 308.5,118.5C 305.626,119.063 302.96,120.063 300.5,121.5C 299.103,127.213 299.27,132.88 301,138.5C 302.648,139.717 304.481,140.55 306.5,141C 306.915,143.026 307.915,144.526 309.5,145.5C 309.343,146.873 309.51,148.207 310,149.5C 312.039,151.257 313.539,153.424 314.5,156C 316.101,156.273 317.601,156.773 319,157.5C 319.143,161.957 320.81,165.623 324,168.5C 324.333,173.167 324.667,177.833 325,182.5C 327.313,185.497 328.98,188.831 330,192.5C 330.771,204.689 331.604,216.855 332.5,229C 336.259,233.972 341.259,235.639 347.5,234C 349.141,232.871 350.141,231.371 350.5,229.5C 350.5,229.167 350.5,228.833 350.5,228.5C 351.117,228.389 351.617,228.056 352,227.5C 352.667,214.167 352.667,200.833 352,187.5C 351.279,179.375 349.112,171.708 345.5,164.5C 345.772,161.439 345.772,158.439 345.5,155.5C 344.509,154.335 343.509,153.168 342.5,152C 342.645,151.228 342.978,150.561 343.5,150C 342.167,148.667 340.833,147.333 339.5,146C 343.856,142.971 344.856,139.304 342.5,135C 340.153,134.666 337.819,134.833 335.5,135.5C 335.5,134.167 335.5,132.833 335.5,131.5C 337.952,131.376 339.952,130.376 341.5,128.5C 344.501,130.346 347.335,132.346 350,134.5C 350.167,135.333 350.333,136.167 350.5,137C 348.325,139.681 346.658,142.681 345.5,146C 345.542,147.967 346.042,149.801 347,151.5C 348.375,149.624 349.542,147.624 350.5,145.5C 352.389,148.509 354.222,151.509 356,154.5C 356.119,151.273 355.285,148.273 353.5,145.5C 354.325,144.614 355.325,144.281 356.5,144.5C 356.232,146.099 356.566,147.432 357.5,148.5C 361.464,150.501 363.464,153.835 363.5,158.5C 364.689,159.429 366.022,159.762 367.5,159.5C 366.741,164.352 368.074,168.352 371.5,171.5C 377.402,191.347 378.902,211.68 376,232.5C 375.814,234.9 375.314,237.234 374.5,239.5C 373.914,239.291 373.414,238.957 373,238.5C 372.169,245.146 371.669,251.813 371.5,258.5C 371.737,259.791 371.404,260.791 370.5,261.5C 369.222,261.782 368.222,262.449 367.5,263.5C 365.616,263.712 364.283,264.712 363.5,266.5C 361.301,273.309 358.801,279.976 356,286.5C 352.802,287.23 351.302,289.23 351.5,292.5C 350.5,292.5 349.5,292.5 348.5,292.5C 348.246,295.014 347.413,297.348 346,299.5C 345.667,299.167 345.333,298.833 345,298.5C 343.838,300.838 342.004,302.172 339.5,302.5C 339.5,303.833 339.5,305.167 339.5,306.5C 337.738,306.643 336.071,306.309 334.5,305.5C 334.167,305.833 333.833,306.167 333.5,306.5C 334.167,307.167 334.833,307.833 335.5,308.5C 331.423,308.914 328.423,310.914 326.5,314.5C 324.018,316.344 321.351,317.677 318.5,318.5C 318.5,319.5 318.5,320.5 318.5,321.5C 317.167,321.5 315.833,321.5 314.5,321.5C 314.439,323.592 313.439,325.092 311.5,326C 306.548,329.192 301.215,331.525 295.5,333C 294.748,333.671 294.414,334.504 294.5,335.5C 293.833,335.5 293.167,335.5 292.5,335.5C 285.435,335.902 278.435,336.735 271.5,338C 264.167,338.667 256.833,338.667 249.5,338C 244.584,336.839 239.584,336.173 234.5,336C 228.958,331.157 222.625,328.99 215.5,329.5C 213.225,327.583 210.558,326.583 207.5,326.5C 204.328,326.623 201.995,327.956 200.5,330.5C 200.167,330.5 199.833,330.5 199.5,330.5C 193.948,330.798 188.948,332.464 184.5,335.5C 165.452,338.07 146.452,337.903 127.5,335C 118.479,331.603 109.479,328.103 100.5,324.5C 95.6566,322.582 91.3233,319.916 87.5,316.5C 86.2405,313.404 84.0738,311.071 81,309.5C 78.8939,306.731 77.2272,303.731 76,300.5C 74.6439,299.62 73.1439,299.286 71.5,299.5C 71.2298,296.254 70.8965,293.254 70.5,290.5C 68.7046,288.297 66.3712,287.131 63.5,287C 60.3126,283.472 57.4793,279.639 55,275.5C 54.3292,274.748 53.4959,274.414 52.5,274.5C 51.9951,271.479 51.3284,268.479 50.5,265.5C 47.4436,261.212 44.7769,256.878 42.5,252.5C 42.5,252.167 42.5,251.833 42.5,251.5C 38.6012,229.31 37.6012,206.976 39.5,184.5C 39.5,184.167 39.5,183.833 39.5,183.5C 42.1182,175.307 45.1182,167.307 48.5,159.5C 52.4587,157.927 54.1253,154.927 53.5,150.5C 54.8333,150.5 56.1667,150.5 57.5,150.5C 56.8538,141.649 60.3538,134.982 68,130.5C 68.3838,127.94 69.2171,125.606 70.5,123.5C 76.6956,116.804 83.3623,110.637 90.5,105C 95.4564,103.369 99.4564,100.536 102.5,96.5C 104.848,96.4077 106.514,95.4077 107.5,93.5C 107.833,93.5 108.167,93.5 108.5,93.5C 130.231,86.4255 152.564,83.7588 175.5,85.5 Z"/></g>
<g><path style="opacity:0.89" fill="#b35457" d="M 175.5,85.5 C 177.833,85.5 180.167,85.5 182.5,85.5C 189.639,86.7486 196.306,89.082 202.5,92.5C 193.294,90.5317 184.294,88.1984 175.5,85.5 Z"/></g>
<g><path style="opacity:1" fill="#b1262e" d="M 244.5,84.5 C 251.841,84.3337 259.174,84.5003 266.5,85C 269.036,85.1862 271.369,85.6862 273.5,86.5C 266.492,86.3337 259.492,86.5004 252.5,87C 238.321,89.1146 224.321,91.9479 210.5,95.5C 212.072,94.3127 213.739,93.3127 215.5,92.5C 216.209,91.596 217.209,91.2627 218.5,91.5C 221.89,90.9767 225.223,90.1434 228.5,89C 229.056,88.6174 229.389,88.1174 229.5,87.5C 234.169,85.4214 239.169,84.4214 244.5,84.5 Z"/></g>
<g><path style="opacity:0.855" fill="#be696b" d="M 315.5,97.5 C 313.801,97.6602 312.134,97.4935 310.5,97C 298.702,91.4685 286.369,87.9685 273.5,86.5C 271.369,85.6862 269.036,85.1862 266.5,85C 259.174,84.5003 251.841,84.3337 244.5,84.5C 269.608,80.5657 293.275,84.899 315.5,97.5 Z"/></g>
<g><path style="opacity:0.631" fill="#bc6a74" d="M 229.5,87.5 C 229.389,88.1174 229.056,88.6174 228.5,89C 225.223,90.1434 221.89,90.9767 218.5,91.5C 221.689,89.1103 225.356,87.7769 229.5,87.5 Z"/></g>
<g><path style="opacity:0.212" fill="#a85658" d="M 107.5,93.5 C 106.514,95.4077 104.848,96.4077 102.5,96.5C 103.659,94.7497 105.326,93.7497 107.5,93.5 Z"/></g>
<g><path style="opacity:0.651" fill="#c87679" d="M 315.5,97.5 C 317.368,98.2632 319.035,99.2632 320.5,100.5C 318.833,100.5 317.167,100.5 315.5,100.5C 315.5,99.5 315.5,98.5 315.5,97.5 Z"/></g>
<g><path style="opacity:0.643" fill="#c36f76" d="M 320.5,100.5 C 322.795,101.475 324.795,102.808 326.5,104.5C 324.5,104.167 322.5,103.833 320.5,103.5C 320.5,102.5 320.5,101.5 320.5,100.5 Z"/></g>
<g><path style="opacity:0.004" fill="#ffe3e4" d="M 327.5,105.5 C 329.027,105.427 330.027,106.094 330.5,107.5C 328.973,107.573 327.973,106.906 327.5,105.5 Z"/></g>
<g><path style="opacity:0.459" fill="#e39da2" d="M 330.5,107.5 C 332.389,108.604 334.055,109.937 335.5,111.5C 334.391,111.443 333.391,111.11 332.5,110.5C 331.094,110.027 330.427,109.027 330.5,107.5 Z"/></g>
<g><path style="opacity:1" fill="#b5041e" d="M 315.5,100.5 C 317.167,100.5 318.833,100.5 320.5,100.5C 320.5,101.5 320.5,102.5 320.5,103.5C 322.5,103.833 324.5,104.167 326.5,104.5C 327.167,104.5 327.5,104.833 327.5,105.5C 327.973,106.906 328.973,107.573 330.5,107.5C 330.427,109.027 331.094,110.027 332.5,110.5C 333.082,111.931 333.915,113.264 335,114.5C 339.192,116.184 341.692,119.184 342.5,123.5C 343.959,123.433 345.292,123.766 346.5,124.5C 346.525,127.179 347.858,128.512 350.5,128.5C 352.202,132.23 354.202,135.896 356.5,139.5C 357.484,142.428 357.817,145.428 357.5,148.5C 356.566,147.432 356.232,146.099 356.5,144.5C 355.325,144.281 354.325,144.614 353.5,145.5C 355.285,148.273 356.119,151.273 356,154.5C 354.222,151.509 352.389,148.509 350.5,145.5C 349.542,147.624 348.375,149.624 347,151.5C 346.042,149.801 345.542,147.967 345.5,146C 346.658,142.681 348.325,139.681 350.5,137C 350.333,136.167 350.167,135.333 350,134.5C 347.335,132.346 344.501,130.346 341.5,128.5C 339.952,130.376 337.952,131.376 335.5,131.5C 335.5,132.833 335.5,134.167 335.5,135.5C 337.819,134.833 340.153,134.666 342.5,135C 344.856,139.304 343.856,142.971 339.5,146C 340.833,147.333 342.167,148.667 343.5,150C 342.978,150.561 342.645,151.228 342.5,152C 343.509,153.168 344.509,154.335 345.5,155.5C 345.772,158.439 345.772,161.439 345.5,164.5C 349.112,171.708 351.279,179.375 352,187.5C 352.667,200.833 352.667,214.167 352,227.5C 351.617,228.056 351.117,228.389 350.5,228.5C 350.5,227.833 350.5,227.167 350.5,226.5C 351.166,221.845 351.499,217.012 351.5,212C 351.65,204.277 350.983,196.777 349.5,189.5C 349.5,188.167 349.5,186.833 349.5,185.5C 347.361,177.314 345.528,168.98 344,160.5C 340.431,154.055 337.264,147.389 334.5,140.5C 333.5,140.5 332.5,140.5 331.5,140.5C 330.132,134.29 326.632,129.624 321,126.5C 320.321,122.751 318.154,120.751 314.5,120.5C 313.01,118.72 311.01,118.054 308.5,118.5C 307.602,117.842 306.602,117.176 305.5,116.5C 306.833,115.167 308.167,113.833 309.5,112.5C 305.519,110.4 305.685,109.4 310,109.5C 317.01,111.013 317.51,112.846 311.5,115C 314.571,115.147 317.404,115.98 320,117.5C 321.127,114.553 321.627,111.719 321.5,109C 321.095,108.055 320.428,107.388 319.5,107C 319.833,106.667 320.167,106.333 320.5,106C 319.985,102.989 318.318,101.156 315.5,100.5 Z"/></g>
<g><path style="opacity:1" fill="#ac4144" d="M 332.5,110.5 C 333.391,111.11 334.391,111.443 335.5,111.5C 339.5,114.833 343.167,118.5 346.5,122.5C 346.5,123.167 346.5,123.833 346.5,124.5C 345.292,123.766 343.959,123.433 342.5,123.5C 341.692,119.184 339.192,116.184 335,114.5C 333.915,113.264 333.082,111.931 332.5,110.5 Z"/></g>
<g><path style="opacity:0.471" fill="#a3333b" d="M 102.5,96.5 C 99.4564,100.536 95.4564,103.369 90.5,105C 83.3623,110.637 76.6956,116.804 70.5,123.5C 69.609,124.11 68.609,124.443 67.5,124.5C 77.43,112.893 89.0967,103.56 102.5,96.5 Z"/></g>
<g><path style="opacity:0.169" fill="#e5999d" d="M 314.5,120.5 C 314.833,121.167 315.167,121.833 315.5,122.5C 311.045,120.726 307.045,121.392 303.5,124.5C 303.539,123.417 303.873,122.417 304.5,121.5C 307.768,120.513 311.102,120.18 314.5,120.5 Z"/></g>
<g><path style="opacity:0.988" fill="#b4444b" d="M 314.5,120.5 C 318.154,120.751 320.321,122.751 321,126.5C 326.632,129.624 330.132,134.29 331.5,140.5C 325.875,134.868 320.542,128.868 315.5,122.5C 315.167,121.833 314.833,121.167 314.5,120.5 Z"/></g>
<g><path style="opacity:0.188" fill="#fed2d9" d="M 346.5,122.5 C 348.587,123.585 349.92,125.251 350.5,127.5C 349.167,126.5 347.833,125.5 346.5,124.5C 346.5,123.833 346.5,123.167 346.5,122.5 Z"/></g>
<g><path style="opacity:0.212" fill="#dd9394" d="M 303.5,124.5 C 302.735,127.096 302.401,129.763 302.5,132.5C 301.848,131.551 301.514,130.385 301.5,129C 301.307,126.992 301.974,125.492 303.5,124.5 Z"/></g>
<g><path style="opacity:0.188" fill="#ffcfd4" d="M 351.5,128.5 C 352.906,128.973 353.573,129.973 353.5,131.5C 352.094,131.027 351.427,130.027 351.5,128.5 Z"/></g>
<g><path style="opacity:0.125" fill="#ffc6cc" d="M 354.5,132.5 C 355.906,132.973 356.573,133.973 356.5,135.5C 355.094,135.027 354.427,134.027 354.5,132.5 Z"/></g>
<g><path style="opacity:0.086" fill="#f4bcc1" d="M 302.5,132.5 C 303.674,133.514 304.34,134.847 304.5,136.5C 302.896,135.713 302.229,134.38 302.5,132.5 Z"/></g>
<g><path style="opacity:0.192" fill="#fad1d3" d="M 356.5,135.5 C 357.906,135.973 358.573,136.973 358.5,138.5C 357.094,138.027 356.427,137.027 356.5,135.5 Z"/></g>
<g><path style="opacity:1" fill="#aa1d2c" d="M 308.5,118.5 C 311.01,118.054 313.01,118.72 314.5,120.5C 311.102,120.18 307.768,120.513 304.5,121.5C 303.873,122.417 303.539,123.417 303.5,124.5C 301.974,125.492 301.307,126.992 301.5,129C 301.514,130.385 301.848,131.551 302.5,132.5C 302.229,134.38 302.896,135.713 304.5,136.5C 306.547,138.55 308.214,140.883 309.5,143.5C 309.5,144.167 309.5,144.833 309.5,145.5C 307.915,144.526 306.915,143.026 306.5,141C 304.481,140.55 302.648,139.717 301,138.5C 299.27,132.88 299.103,127.213 300.5,121.5C 302.96,120.063 305.626,119.063 308.5,118.5 Z"/></g>
<g><path style="opacity:0.157" fill="#ffd4d8" d="M 358.5,138.5 C 359.906,138.973 360.573,139.973 360.5,141.5C 359.094,141.027 358.427,140.027 358.5,138.5 Z"/></g>
<g><path style="opacity:0.176" fill="#e59eaa" d="M 309.5,143.5 C 311.587,144.585 312.92,146.251 313.5,148.5C 312.167,147.5 310.833,146.5 309.5,145.5C 309.5,144.833 309.5,144.167 309.5,143.5 Z"/></g>
<g><path style="opacity:1" fill="#ad242d" d="M 346.5,124.5 C 347.833,125.5 349.167,126.5 350.5,127.5C 351.167,127.5 351.5,127.833 351.5,128.5C 351.427,130.027 352.094,131.027 353.5,131.5C 354.167,131.5 354.5,131.833 354.5,132.5C 354.427,134.027 355.094,135.027 356.5,135.5C 356.427,137.027 357.094,138.027 358.5,138.5C 358.427,140.027 359.094,141.027 360.5,141.5C 361.674,142.514 362.34,143.847 362.5,145.5C 362.427,147.027 363.094,148.027 364.5,148.5C 365.674,149.514 366.34,150.847 366.5,152.5C 366.402,154.553 367.069,156.22 368.5,157.5C 370.065,159.509 371.065,161.843 371.5,164.5C 371.5,166.833 371.5,169.167 371.5,171.5C 368.074,168.352 366.741,164.352 367.5,159.5C 366.022,159.762 364.689,159.429 363.5,158.5C 363.464,153.835 361.464,150.501 357.5,148.5C 357.817,145.428 357.484,142.428 356.5,139.5C 354.202,135.896 352.202,132.23 350.5,128.5C 347.858,128.512 346.525,127.179 346.5,124.5 Z"/></g>
<g><path style="opacity:0.165" fill="#facdd1" d="M 362.5,145.5 C 363.906,145.973 364.573,146.973 364.5,148.5C 363.094,148.027 362.427,147.027 362.5,145.5 Z"/></g>
<g><path style="opacity:0.016" fill="#eda6aa" d="M 337.5,152.5 C 339.539,153.911 340.539,155.911 340.5,158.5C 338.992,156.819 337.992,154.819 337.5,152.5 Z"/></g>
<g><path style="opacity:1" fill="#a91b27" d="M 70.5,123.5 C 69.2171,125.606 68.3838,127.94 68,130.5C 60.3538,134.982 56.8538,141.649 57.5,150.5C 56.1667,150.5 54.8333,150.5 53.5,150.5C 54.1253,154.927 52.4587,157.927 48.5,159.5C 48.5,158.167 48.5,156.833 48.5,155.5C 53.0529,144.058 59.3862,133.725 67.5,124.5C 68.609,124.443 69.609,124.11 70.5,123.5 Z"/></g>
<g><path style="opacity:0.098" fill="#ffdae2" d="M 366.5,152.5 C 367.931,153.78 368.598,155.447 368.5,157.5C 367.069,156.22 366.402,154.553 366.5,152.5 Z"/></g>
<g><path style="opacity:0.95" fill="#a82633" d="M 331.5,140.5 C 332.5,140.5 333.5,140.5 334.5,140.5C 337.264,147.389 340.431,154.055 344,160.5C 345.528,168.98 347.361,177.314 349.5,185.5C 348.833,185.5 348.167,185.5 347.5,185.5C 345.014,176.558 342.681,167.558 340.5,158.5C 340.539,155.911 339.539,153.911 337.5,152.5C 334.977,148.787 332.977,144.787 331.5,140.5 Z"/></g>
<g><path style="opacity:0.208" fill="#a13d43" d="M 48.5,155.5 C 48.5,156.833 48.5,158.167 48.5,159.5C 45.1182,167.307 42.1182,175.307 39.5,183.5C 40.6673,173.47 43.6673,164.137 48.5,155.5 Z"/></g>
<g><path style="opacity:0.082" fill="#f7c6c6" d="M 347.5,185.5 C 348.167,185.5 348.833,185.5 349.5,185.5C 349.5,186.833 349.5,188.167 349.5,189.5C 349.5,191.833 349.5,194.167 349.5,196.5C 348.693,192.979 348.026,189.312 347.5,185.5 Z"/></g>
<g><path style="opacity:0.949" fill="#a62731" d="M 309.5,145.5 C 310.833,146.5 312.167,147.5 313.5,148.5C 319.438,154.696 323.605,162.029 326,170.5C 327.687,178.58 329.687,186.58 332,194.5C 332.879,205.86 333.879,217.194 335,228.5C 335.5,230.333 336.667,231.5 338.5,232C 340.81,232.497 343.143,232.663 345.5,232.5C 347.411,231.925 349.078,230.925 350.5,229.5C 350.141,231.371 349.141,232.871 347.5,234C 341.259,235.639 336.259,233.972 332.5,229C 331.604,216.855 330.771,204.689 330,192.5C 328.98,188.831 327.313,185.497 325,182.5C 324.667,177.833 324.333,173.167 324,168.5C 320.81,165.623 319.143,161.957 319,157.5C 317.601,156.773 316.101,156.273 314.5,156C 313.539,153.424 312.039,151.257 310,149.5C 309.51,148.207 309.343,146.873 309.5,145.5 Z"/></g>
<g><path style="opacity:0.886" fill="#b95559" d="M 371.5,164.5 C 383.496,195.869 383.496,227.202 371.5,258.5C 371.669,251.813 372.169,245.146 373,238.5C 373.414,238.957 373.914,239.291 374.5,239.5C 375.314,237.234 375.814,234.9 376,232.5C 378.902,211.68 377.402,191.347 371.5,171.5C 371.5,169.167 371.5,166.833 371.5,164.5 Z"/></g>
<g><path style="opacity:0.371" fill="#801c2e" d="M 349.5,189.5 C 350.983,196.777 351.65,204.277 351.5,212C 351.499,217.012 351.166,221.845 350.5,226.5C 350.827,217.318 350.493,208.318 349.5,199.5C 349.5,198.5 349.5,197.5 349.5,196.5C 349.5,194.167 349.5,191.833 349.5,189.5 Z"/></g>
<g><path style="opacity:0.803" fill="#9d343e" d="M 39.5,184.5 C 37.6012,206.976 38.6012,229.31 42.5,251.5C 37.3156,234.665 35.4823,217.331 37,199.5C 37.2956,194.272 38.1289,189.272 39.5,184.5 Z"/></g>
<g><path style="opacity:0.02" fill="#f9c4cb" d="M 349.5,199.5 C 350.493,208.318 350.827,217.318 350.5,226.5C 350.5,227.167 350.5,227.833 350.5,228.5C 350.5,228.833 350.5,229.167 350.5,229.5C 349.078,230.925 347.411,231.925 345.5,232.5C 346.458,231.038 347.624,229.705 349,228.5C 349.5,218.839 349.666,209.172 349.5,199.5 Z"/></g>
<g><path style="opacity:0.537" fill="#ae5357" d="M 370.5,261.5 C 369.537,264.744 368.204,267.744 366.5,270.5C 366.448,268.097 366.781,265.764 367.5,263.5C 368.222,262.449 369.222,261.782 370.5,261.5 Z"/></g>
<g><path style="opacity:1" fill="#a8242d" d="M 367.5,263.5 C 366.781,265.764 366.448,268.097 366.5,270.5C 351.254,301.801 327.254,323.468 294.5,335.5C 294.414,334.504 294.748,333.671 295.5,333C 301.215,331.525 306.548,329.192 311.5,326C 313.439,325.092 314.439,323.592 314.5,321.5C 315.833,321.5 317.167,321.5 318.5,321.5C 318.5,320.5 318.5,319.5 318.5,318.5C 321.351,317.677 324.018,316.344 326.5,314.5C 328.423,310.914 331.423,308.914 335.5,308.5C 334.833,307.833 334.167,307.167 333.5,306.5C 333.833,306.167 334.167,305.833 334.5,305.5C 336.071,306.309 337.738,306.643 339.5,306.5C 339.5,305.167 339.5,303.833 339.5,302.5C 342.004,302.172 343.838,300.838 345,298.5C 345.333,298.833 345.667,299.167 346,299.5C 347.413,297.348 348.246,295.014 348.5,292.5C 349.5,292.5 350.5,292.5 351.5,292.5C 351.302,289.23 352.802,287.23 356,286.5C 358.801,279.976 361.301,273.309 363.5,266.5C 364.283,264.712 365.616,263.712 367.5,263.5 Z"/></g>
<g><path style="opacity:0.322" fill="#a63b43" d="M 42.5,252.5 C 44.7769,256.878 47.4436,261.212 50.5,265.5C 51.3284,268.479 51.9951,271.479 52.5,274.5C 50.8639,273.251 49.6972,271.584 49,269.5C 46.5417,263.96 44.375,258.294 42.5,252.5 Z"/></g>
<g><path style="opacity:1" fill="#ae212e" d="M 52.5,274.5 C 53.4959,274.414 54.3292,274.748 55,275.5C 57.4793,279.639 60.3126,283.472 63.5,287C 66.3712,287.131 68.7046,288.297 70.5,290.5C 70.8965,293.254 71.2298,296.254 71.5,299.5C 73.1439,299.286 74.6439,299.62 76,300.5C 77.2272,303.731 78.8939,306.731 81,309.5C 84.0738,311.071 86.2405,313.404 87.5,316.5C 72.1917,305.526 60.5251,291.526 52.5,274.5 Z"/></g>
<g><path style="opacity:0.831" fill="#9c313a" d="M 100.5,324.5 C 109.479,328.103 118.479,331.603 127.5,335C 146.452,337.903 165.452,338.07 184.5,335.5C 158.212,342.388 132.545,340.221 107.5,329C 105.102,327.476 102.769,325.976 100.5,324.5 Z"/></g>
<g><path style="opacity:0.553" fill="#a7404a" d="M 215.5,329.5 C 216.609,330.29 217.942,330.79 219.5,331C 220.252,331.671 220.586,332.504 220.5,333.5C 215.972,331.935 211.472,330.268 207,328.5C 204.774,329.033 202.607,329.7 200.5,330.5C 201.995,327.956 204.328,326.623 207.5,326.5C 210.558,326.583 213.225,327.583 215.5,329.5 Z"/></g>
<g><path style="opacity:0.196" fill="#a14347" d="M 199.5,330.5 C 194.915,333.14 189.915,334.806 184.5,335.5C 188.948,332.464 193.948,330.798 199.5,330.5 Z"/></g>
<g><path style="opacity:0.98" fill="#9d1f2e" d="M 292.5,335.5 C 268.384,342.608 244.384,341.941 220.5,333.5C 220.586,332.504 220.252,331.671 219.5,331C 217.942,330.79 216.609,330.29 215.5,329.5C 222.625,328.99 228.958,331.157 234.5,336C 239.584,336.173 244.584,336.839 249.5,338C 256.833,338.667 264.167,338.667 271.5,338C 278.435,336.735 285.435,335.902 292.5,335.5 Z"/></g>
</svg>
